<mxfile host="app.diagrams.net" modified="2024-03-02T09:57:37.964Z" agent="Mozilla/5.0 (Macintosh; Intel Mac OS X 10_15_7) AppleWebKit/537.36 (KHTML, like Gecko) Chrome/122.0.0.0 Safari/537.36" etag="30ph7C3BlW2P6KH2vRI6" version="24.0.0" type="device">
  <diagram name="Page-1" id="uQXPQAZC4jYBxylsKgp4">
    <mxGraphModel dx="1032" dy="1109" grid="1" gridSize="10" guides="1" tooltips="1" connect="1" arrows="1" fold="1" page="1" pageScale="1" pageWidth="827" pageHeight="1169" math="0" shadow="0">
      <root>
        <mxCell id="0" />
        <mxCell id="1" parent="0" />
        <mxCell id="jliX9TaiECloQyiQ7Vz3-1" value="" style="rounded=1;whiteSpace=wrap;html=1;" vertex="1" parent="1">
          <mxGeometry x="85" y="90" width="610" height="300" as="geometry" />
        </mxCell>
        <mxCell id="jliX9TaiECloQyiQ7Vz3-4" value="" style="edgeStyle=orthogonalEdgeStyle;rounded=0;orthogonalLoop=1;jettySize=auto;html=1;" edge="1" parent="1" source="jliX9TaiECloQyiQ7Vz3-2" target="jliX9TaiECloQyiQ7Vz3-3">
          <mxGeometry relative="1" as="geometry" />
        </mxCell>
        <mxCell id="jliX9TaiECloQyiQ7Vz3-7" value="" style="edgeStyle=orthogonalEdgeStyle;rounded=0;orthogonalLoop=1;jettySize=auto;html=1;" edge="1" parent="1" source="jliX9TaiECloQyiQ7Vz3-2" target="jliX9TaiECloQyiQ7Vz3-6">
          <mxGeometry relative="1" as="geometry" />
        </mxCell>
        <mxCell id="jliX9TaiECloQyiQ7Vz3-2" value="ConfigShell" style="shape=module;align=left;spacingLeft=20;align=center;verticalAlign=top;whiteSpace=wrap;html=1;" vertex="1" parent="1">
          <mxGeometry x="330" y="120" width="100" height="50" as="geometry" />
        </mxCell>
        <mxCell id="jliX9TaiECloQyiQ7Vz3-3" value="ConfigLinux" style="shape=module;align=left;spacingLeft=20;align=center;verticalAlign=top;whiteSpace=wrap;html=1;" vertex="1" parent="1">
          <mxGeometry x="240" y="270" width="100" height="50" as="geometry" />
        </mxCell>
        <mxCell id="jliX9TaiECloQyiQ7Vz3-6" value="ConfigDarwin" style="shape=module;align=left;spacingLeft=20;align=center;verticalAlign=top;whiteSpace=wrap;html=1;" vertex="1" parent="1">
          <mxGeometry x="430" y="270" width="100" height="50" as="geometry" />
        </mxCell>
        <mxCell id="jliX9TaiECloQyiQ7Vz3-8" value="MIT-licensed" style="text;html=1;align=center;verticalAlign=middle;whiteSpace=wrap;rounded=0;" vertex="1" parent="1">
          <mxGeometry x="250" y="350" width="280" height="30" as="geometry" />
        </mxCell>
      </root>
    </mxGraphModel>
  </diagram>
</mxfile>
